<svg id="Capa_1" enable-background="new 0 0 512 512" height="512" viewBox="0 0 512 512" width="512" xmlns="http://www.w3.org/2000/svg"><g><path d="m17.293 511.819 147.295-22.768c4.529-.7 8.489-3.431 10.752-7.417l54.82-96.538 261.152-240.08c26.745-24.403 27.681-66.073 2.098-91.656l-34.77-34.768c-25.791-25.792-67.763-24.535-91.966 2.439l-237.897 262.767-96.486 54.79c-3.917 2.224-6.626 6.09-7.381 10.531l-24.696 145.365c-1.689 9.936 6.857 18.91 17.079 17.335zm162.013-239.134 61.697 61.696-22.289 20.491-59.735-59.735zm209.652-231.57c12.788-14.253 34.887-14.893 48.47-1.311l34.769 34.769c13.406 13.406 13.077 35.344-1.146 48.322l-207.944 191.166-63.643-63.642zm-253.206 273.22 63.841 63.84-46.757 82.339-93.958 14.523 44.557-43.615c14.38 1.699 26.778-9.535 26.778-23.767 0-13.222-10.718-23.94-23.94-23.94-14.068 0-25.196 12.105-23.826 26.273l-44.919 43.97 15.765-92.797z"/></g></svg>